# File created by Blade
# Date/Time:  Thu Jan 22 18:25:10 2015
# Frame Rate: 120.000 fps
#------------------------------------------------------
:FULLY-SPECIFIED
:DEGREES
2887
root -2.851405 33.109659 -0.375288 7.704960 -1.564534 2.629054
RightUpLeg -1.237297 -5.084145 -1.989676
RightLeg 0.077397 -0.000000 -0.000000
RightFoot -12.021270 -3.719065 3.562756
RightToeBase 5.962846 -0.000000 -0.000000
LeftUpLeg -1.256740 4.142711 0.630708
LeftLeg 0.879097 -0.000000 -0.000000
LeftFoot -10.721261 1.740200 -9.096993
LeftToeBase 8.770764 -0.000000 -0.000000
Spine -12.950737 -11.282358 -3.294547
RightShoulder 6.145024 4.959489 -19.099436
RightArm 58.679892 -35.238284 74.815498
RightForeArm 43.293745 -0.000000 114.182167
RightHand 20.255843 -0.000000 21.263777
RightHandThumb1 -24.326973 -0.000000 -32.862282
LeftShoulder 0.195483 -54.338352 43.738783
LeftArm 70.839542 43.166664 -88.057413
LeftForeArm 22.592197 -0.000000 117.751349
LeftHand 1.172791 -0.000000 -25.603284
LeftHandThumb1 -26.253704 0.000000 33.147579
Head -3.293782 13.887273 10.314992
2888
root -2.849531 33.108515 -0.372937 7.708210 -1.537747 2.629797
RightUpLeg -1.226187 -5.104885 -1.991066
RightLeg 0.067570 -0.000000 -0.000000
RightFoot -12.032044 -3.715360 3.582360
RightToeBase 5.979170 -0.000000 -0.000000
LeftUpLeg -1.258351 4.137387 0.626494
LeftLeg 0.882618 -0.000000 -0.000000
LeftFoot -10.754605 1.738854 -9.073832
LeftToeBase 8.860127 -0.000000 -0.000000
Spine -12.977425 -11.291922 -3.272206
RightShoulder 6.145457 4.906098 -19.109798
RightArm 58.736226 -35.247151 74.755955
RightForeArm 43.326712 -0.000000 114.139071
RightHand 20.222419 -0.000000 21.310478
RightHandThumb1 -24.326973 -0.000000 -32.862282
LeftShoulder 0.232835 -54.301830 43.652917
LeftArm 70.844210 43.180219 -88.030270
LeftForeArm 22.574565 -0.000000 117.727690
LeftHand 1.186496 -0.000000 -25.623118
LeftHandThumb1 -26.253704 0.000000 33.147579
Head -3.235433 13.838113 10.273849
2889
root -2.847984 33.108057 -0.370664 7.704968 -1.514494 2.638448
RightUpLeg -1.211344 -5.127966 -2.001099
RightLeg 0.062344 -0.000000 -0.000000
RightFoot -12.038236 -3.713554 3.586808
RightToeBase 5.969865 -0.000000 -0.000000
LeftUpLeg -1.255775 4.120238 0.624789
LeftLeg 0.882411 -0.000000 -0.000000
LeftFoot -10.714069 1.691618 -9.087801
LeftToeBase 8.688754 -0.000000 -0.000000
Spine -12.989660 -11.301893 -3.264737
RightShoulder 6.137444 4.881203 -19.113229
RightArm 58.777360 -35.270126 74.698901
RightForeArm 43.281449 -0.000000 114.111901
RightHand 20.151159 -0.000000 21.388916
RightHandThumb1 -24.326973 -0.000000 -32.862282
LeftShoulder 0.255758 -54.235390 43.575602
LeftArm 70.906127 43.204175 -87.962997
LeftForeArm 22.559545 -0.000000 117.707338
LeftHand 1.229955 0.000000 -25.623893
LeftHandThumb1 -26.253704 0.000000 33.147579
Head -3.196474 13.779444 10.249314
2890
root -2.847191 33.107877 -0.368500 7.701929 -1.498932 2.644522
RightUpLeg -1.199166 -5.126536 -2.006315
RightLeg 0.057705 -0.000000 -0.000000
RightFoot -12.043910 -3.740167 3.582106
RightToeBase 5.964293 -0.000000 -0.000000
LeftUpLeg -1.248467 4.123625 0.619456
LeftLeg 0.874950 -0.000000 -0.000000
LeftFoot -10.724613 1.696521 -9.028355
LeftToeBase 8.797617 -0.000000 -0.000000
Spine -13.001348 -11.299342 -3.265882
RightShoulder 6.123008 4.866008 -19.108074
RightArm 58.790888 -35.285347 74.661653
RightForeArm 43.342229 -0.000000 114.080160
RightHand 20.111551 0.000000 21.425100
RightHandThumb1 -24.326973 -0.000000 -32.862282
LeftShoulder 0.242814 -54.363552 43.532256
LeftArm 70.697951 43.244309 -88.091455
LeftForeArm 22.515627 -0.000000 117.677223
LeftHand 1.226317 0.000000 -25.676688
LeftHandThumb1 -26.253704 0.000000 33.147579
Head -3.152861 13.736256 10.254275
2891
root -2.846295 33.107008 -0.365885 7.699118 -1.487065 2.642403
RightUpLeg -1.188104 -5.124233 -2.006928
RightLeg 0.054724 -0.000000 -0.000000
RightFoot -12.054898 -3.741754 3.586241
RightToeBase 5.951946 -0.000000 -0.000000
LeftUpLeg -1.242754 4.124568 0.619363
LeftLeg 0.880020 -0.000000 -0.000000
LeftFoot -10.752527 1.683132 -9.080325
LeftToeBase 8.862559 -0.000000 -0.000000
Spine -13.014896 -11.300073 -3.255782
RightShoulder 6.096440 4.809132 -19.102094
RightArm 58.875572 -35.294405 74.585100
RightForeArm 43.372300 -0.000000 114.033169
RightHand 20.117521 -0.000000 21.464705
RightHandThumb1 -24.326973 -0.000000 -32.862282
LeftShoulder 0.263744 -54.353331 43.483451
LeftArm 70.691094 43.259404 -88.082233
LeftForeArm 22.488228 0.000000 117.658751
LeftHand 1.230059 -0.000000 -25.709789
LeftHandThumb1 -26.253704 0.000000 33.147579
Head -3.114724 13.685016 10.255477
